<svg aria-hidden="true" style="position: absolute; width: 0; height: 0; overflow: hidden;" version="1.1" xmlns="http://www.w3.org/2000/svg" xmlns:xlink="http://www.w3.org/1999/xlink">
<defs>
<symbol id="facebook" viewBox="0 0 18 32">
<path d="M11.703 29.591v-13.137h4.632l0.693-5.12h-5.325v-3.269c0-1.482 0.432-2.492 2.665-2.492l2.848-0.001v-4.579c-0.492-0.062-2.183-0.202-4.149-0.202-4.106 0-6.916 2.386-6.916 6.768v3.776h-4.643v5.12h4.643v13.137h5.553z"></path>
</symbol>
<symbol id="instagram" viewBox="0 0 30 32">
<path fill-rule="evenodd" clip-rule="evenodd" d="M1.363 15.191c0-5.752 0-8.628 1.371-10.7 0.612-0.925 1.404-1.717 2.329-2.329 2.072-1.371 4.948-1.371 10.7-1.371s8.628 0 10.7 1.371c0.925 0.612 1.717 1.404 2.329 2.329 1.371 2.072 1.371 4.948 1.371 10.7s0 8.628-1.371 10.7c-0.612 0.925-1.404 1.717-2.329 2.329-2.072 1.371-4.948 1.371-10.7 1.371s-8.628 0-10.7-1.371c-0.925-0.612-1.717-1.404-2.329-2.329-1.371-2.072-1.371-4.948-1.371-10.7zM23.217 15.192c0 4.117-3.338 7.455-7.455 7.455s-7.455-3.338-7.455-7.455c0-4.117 3.338-7.455 7.455-7.455s7.455 3.338 7.455 7.455zM15.762 20.125c2.724 0 4.933-2.208 4.933-4.933s-2.208-4.933-4.933-4.933-4.933 2.209-4.933 4.933c0 2.724 2.209 4.933 4.933 4.933zM23.512 9.114c0.968 0 1.752-0.784 1.752-1.752s-0.784-1.752-1.752-1.752c-0.967 0-1.752 0.784-1.752 1.752s0.784 1.752 1.752 1.752z"></path>
</symbol>
<symbol id="linkedIn" viewBox="0 0 32 32">
<path d="M1.434 5.751c0-0.972 0.341-1.774 1.024-2.406s1.57-0.948 2.663-0.948c1.073 0 1.941 0.311 2.604 0.933 0.683 0.642 1.024 1.478 1.024 2.508 0 0.933-0.332 1.711-0.995 2.333-0.683 0.642-1.58 0.962-2.692 0.962h-0.029c-1.073 0-1.941-0.321-2.604-0.962s-0.995-1.448-0.995-2.421zM1.815 31.269v-19.481h6.496v19.481h-6.496zM11.91 31.269h6.496v-10.878c0-0.68 0.078-1.205 0.234-1.575 0.273-0.661 0.688-1.22 1.244-1.677s1.253-0.685 2.092-0.685c2.185 0 3.277 1.468 3.277 4.404v10.411h6.496v-11.17c0-2.878-0.683-5.060-2.049-6.547s-3.17-2.231-5.413-2.231c-2.517 0-4.477 1.079-5.882 3.237v0.058h-0.029l0.029-0.058v-2.771h-6.496c0.039 0.622 0.059 2.557 0.059 5.804s-0.020 7.806-0.059 13.678z"></path>
</symbol>
<symbol id="burger" viewBox="0 0 32 32">
<path fill="none" stroke="#f7f5f5" style="stroke: var(--color1, #f7f5f5)" stroke-linejoin="round" stroke-linecap="round" stroke-miterlimit="4" stroke-width="2.6667" d="M4 6h24M4 16h24M4 26h24"></path>
</symbol>
<symbol id="close" viewBox="0 0 32 32">
<path stroke-linejoin="round" stroke-linecap="round" stroke-miterlimit="4" stroke-width="2.6667" d="M4 6l24 20M4 26l24-20"></path>
</symbol>
<symbol id="arrow-right" viewBox="0 0 43 32">
<path  stroke-linejoin="miter" stroke-linecap="butt" stroke-miterlimit="4" stroke-width="1.1831" d="M25.068 1.739l0.418-0.418 13.191 13.191 1.423 1.488-1.433 1.498-13.182 13.181-2.995-2.995 9.591-9.591h-29.288v-4.186h29.288l-9.591-9.591 2.577-2.577z"></path>
</symbol>
<symbol id="arrow-left" viewBox="0 0 43 32">
<path stroke-linejoin="miter" stroke-linecap="butt" stroke-miterlimit="4" stroke-width="1.1831" d="M17.599 1.739l-0.418-0.418-13.191 13.191-1.423 1.488 1.433 1.498 13.182 13.181 2.995-2.995-9.591-9.591h29.288v-4.186h-29.288l9.591-9.591-2.577-2.577z"></path>
</symbol>
</defs>
</svg>
